<?xml version="1.0" encoding="UTF-8"?>
<svg width="700pt" height="700pt" version="1.1" viewBox="0 0 700 700" xmlns="http://www.w3.org/2000/svg">
 <g>
  <path d="m222.37 397.37-117.37-117.37 117.37-117.37c3.2812-3.2812 7.7344-5.125 12.375-5.125s9.0938 1.8438 12.375 5.125l24.746 24.746c3.2812 3.2812 5.125 7.7305 5.125 12.371 0 4.6445-1.8438 9.0938-5.125 12.375l-67.883 67.879 67.879 67.879c3.2812 3.2812 5.125 7.7344 5.125 12.375s-1.8438 9.0938-5.125 12.375l-24.746 24.746c-3.2812 3.2812-7.7305 5.1211-12.371 5.1211s-9.0938-1.8438-12.375-5.125z"/>
  <path d="m452.88 397.37-24.746-24.746c-3.2812-3.2812-5.125-7.7305-5.125-12.371 0-4.6445 1.8438-9.0938 5.125-12.375l67.883-67.879-67.879-67.879c-3.2812-3.2812-5.125-7.7344-5.125-12.375s1.8438-9.0938 5.125-12.375l24.746-24.746c3.2812-3.2812 7.7305-5.125 12.371-5.125 4.6445 0 9.0938 1.8438 12.375 5.125l117.37 117.38-117.37 117.37c-3.2812 3.2812-7.7344 5.125-12.375 5.125s-9.0938-1.8438-12.375-5.125z"/>
  <path d="m334.7 490h-33.559c-5.1445 0-10.027-2.2617-13.352-6.1875-3.3281-3.9258-4.7578-9.1172-3.9102-14.191l64.168-385c0.67969-4.0859 2.7891-7.7969 5.9492-10.473 3.1602-2.6797 7.168-4.1484 11.312-4.1484h33.559c5.1445 0 10.027 2.2617 13.352 6.1875 3.3281 3.9258 4.7578 9.1172 3.9102 14.191l-64.168 385c-0.67969 4.0859-2.7891 7.7969-5.9492 10.473-3.1602 2.6797-7.168 4.1484-11.312 4.1484z"/>
 </g>
</svg>
